<?xml version="1.0" encoding="UTF-8" standalone="no"?><!DOCTYPE svg PUBLIC "-//W3C//DTD SVG 1.1//EN" "http://www.w3.org/Graphics/SVG/1.1/DTD/svg11.dtd"><svg width="100%" height="100%" viewBox="0 0 1024 247" version="1.1" xmlns="http://www.w3.org/2000/svg" xmlns:xlink="http://www.w3.org/1999/xlink" xml:space="preserve" xmlns:serif="http://www.serif.com/" style="fill-rule:evenodd;clip-rule:evenodd;stroke-miterlimit:10;"><g id="Layer-1" serif:id="Layer 1"><g><text x="271.056px" y="123.326px" style="font-family:'EurostileBQ-BoldExtended', 'Eurostile BQ';font-weight:500;font-size:88.275px;fill:#2f5285;">S</text><text x="389.518px" y="123.326px" style="font-family:'EurostileBQ-BoldExtended', 'Eurostile BQ';font-weight:500;font-size:88.275px;fill:#2f5285;">C</text><text x="507.981px" y="123.326px" style="font-family:'EurostileBQ-BoldExtended', 'Eurostile BQ';font-weight:500;font-size:88.275px;fill:#2f5285;">O</text><text x="633.77px" y="123.326px" style="font-family:'EurostileBQ-BoldExtended', 'Eurostile BQ';font-weight:500;font-size:88.275px;fill:#2f5285;">R</text><text x="753.997px" y="123.326px" style="font-family:'EurostileBQ-BoldExtended', 'Eurostile BQ';font-weight:500;font-size:88.275px;fill:#2f5285;">P</text><text x="866.898px" y="123.326px" style="font-family:'EurostileBQ-BoldExtended', 'Eurostile BQ';font-weight:500;font-size:88.275px;fill:#2f5285;">I</text><text x="928.335px" y="123.326px" style="font-family:'EurostileBQ-BoldExtended', 'Eurostile BQ';font-weight:500;font-size:88.275px;fill:#2f5285;">O</text><text x="273.999px" y="185.798px" style="font-family:'EurostileBQ-BoldExtended', 'Eurostile BQ';font-weight:500;font-size:53.553px;fill:#2f5285;">I</text><text x="311.268px" y="185.798px" style="font-family:'EurostileBQ-BoldExtended', 'Eurostile BQ';font-weight:500;font-size:53.553px;fill:#2f5285;">N</text><text x="388.702px" y="185.798px" style="font-family:'EurostileBQ-BoldExtended', 'Eurostile BQ';font-weight:500;font-size:53.553px;fill:#2f5285;">T</text><text x="453.873px" y="185.798px" style="font-family:'EurostileBQ-BoldExtended', 'Eurostile BQ';font-weight:500;font-size:53.553px;fill:#2f5285;">E</text><text x="521.239px" y="185.798px" style="font-family:'EurostileBQ-BoldExtended', 'Eurostile BQ';font-weight:500;font-size:53.553px;fill:#2f5285;">L</text><text x="581.912px" y="185.798px" style="font-family:'EurostileBQ-BoldExtended', 'Eurostile BQ';font-weight:500;font-size:53.553px;fill:#2f5285;">L</text><text x="642.584px" y="185.798px" style="font-family:'EurostileBQ-BoldExtended', 'Eurostile BQ';font-weight:500;font-size:53.553px;fill:#2f5285;">I</text><text x="679.903px" y="185.798px" style="font-family:'EurostileBQ-BoldExtended', 'Eurostile BQ';font-weight:500;font-size:53.553px;fill:#2f5285;">G</text><text x="755.088px" y="185.798px" style="font-family:'EurostileBQ-BoldExtended', 'Eurostile BQ';font-weight:500;font-size:53.553px;fill:#2f5285;">E</text><text x="822.455px" y="185.798px" style="font-family:'EurostileBQ-BoldExtended', 'Eurostile BQ';font-weight:500;font-size:53.553px;fill:#2f5285;">N</text><text x="899.889px" y="185.798px" style="font-family:'EurostileBQ-BoldExtended', 'Eurostile BQ';font-weight:500;font-size:53.553px;fill:#2f5285;">C</text><text x="971.754px" y="185.798px" style="font-family:'EurostileBQ-BoldExtended', 'Eurostile BQ';font-weight:500;font-size:53.553px;fill:#2f5285;">E</text></g><g><g><clipPath id="_clip1"><path d="M18.51,63.827c-32.833,58.736 -11.835,132.965 46.9,165.798c58.735,32.834 132.966,11.835 165.799,-46.899c32.833,-58.736 11.835,-132.966 -46.9,-165.799c-18.814,-10.517 -39.215,-15.511 -59.338,-15.51c-42.702,0.001 -84.145,22.489 -106.461,62.41Z" clip-rule="nonzero"/></clipPath><g clip-path="url(#_clip1)"><path d="M-48.04,122.725l172.349,-172.348l17.235,17.235l-172.349,172.348l-17.235,-17.235Z" style="fill:#2f5286;"/><g><g opacity="0.899994"><path d="M-31.003,139.762l172.348,-172.349l17.235,17.235l-172.348,172.349l-17.235,-17.235Z" style="fill:#2f5286;"/></g></g><g><g opacity="0.800003"><path d="M-13.748,157.017l172.349,-172.348l17.235,17.235l-172.349,172.348l-17.235,-17.235Z" style="fill:#2f5286;"/></g></g><g><g opacity="0.699997"><path d="M3.555,174.32l172.349,-172.348l17.234,17.235l-172.349,172.348l-17.234,-17.235Z" style="fill:#2f5286;"/></g></g><g><g opacity="0.600006"><path d="M20.805,191.571l172.349,-172.349l17.235,17.235l-172.349,172.349l-17.235,-17.235Z" style="fill:#2f5286;"/></g></g><g><g opacity="0.5"><path d="M38.056,208.821l172.349,-172.348l17.235,17.235l-172.349,172.348l-17.235,-17.235Z" style="fill:#2f5286;"/></g></g><g><g opacity="0.399994"><path d="M55.291,226.056l172.348,-172.349l17.235,17.236l-172.348,172.349l-17.235,-17.236Z" style="fill:#2f5286;"/></g></g><g><g opacity="0.300003"><path d="M72.526,243.291l172.348,-172.348l17.235,17.235l-172.348,172.348l-17.235,-17.235Z" style="fill:#2f5286;"/></g></g><g><g opacity="0.199997"><path d="M89.76,260.526l172.349,-172.349l17.235,17.235l-172.348,172.349l-17.236,-17.235Z" style="fill:#2f5286;"/></g></g><g><g opacity="0.100006"><path d="M106.995,277.76l172.349,-172.348l17.235,17.235l-172.349,172.348l-17.235,-17.235Z" style="fill:#2f5286;"/></g></g></g></g><path d="M35.598,183.489l20.823,-23.905" style="fill:none;stroke:#2f5285;stroke-width:3px;"/><path d="M84.704,194.339l-49.105,-10.851" style="fill:none;stroke:#2f5285;stroke-width:3px;"/><path d="M204.542,113.116l0.1,-19.434" style="fill:none;stroke:#2f5285;stroke-width:3px;"/><path d="M208.709,66.273l-4.067,27.409" style="fill:none;stroke:#2f5285;stroke-width:3px;"/><path d="M190.745,44.241l13.553,-0.282" style="fill:none;stroke:#2f5285;stroke-width:3px;"/><path d="M208.709,66.273l-4.411,-22.313" style="fill:none;stroke:#2f5285;stroke-width:3px;"/><path d="M193.92,43.221c0.511,1.751 -0.495,3.585 -2.246,4.096c-1.751,0.51 -3.585,-0.495 -4.095,-2.246c-0.511,-1.751 0.494,-3.585 2.245,-4.096c1.751,-0.51 3.585,0.495 4.096,2.246" style="fill:#fff;fill-rule:nonzero;"/><path d="M193.92,43.221c-0.511,-1.75 -2.346,-2.757 -4.096,-2.246c-1.75,0.511 -2.757,2.346 -2.246,4.096c0.51,1.75 2.346,2.757 4.096,2.246c1.75,-0.511 2.756,-2.346 2.246,-4.096Z" style="fill:none;stroke:#2f5285;stroke-width:1px;"/><path d="M207.311,43.308c0.511,1.751 -0.495,3.585 -2.246,4.096c-1.751,0.51 -3.585,-0.495 -4.095,-2.246c-0.511,-1.751 0.494,-3.585 2.246,-4.096c1.751,-0.51 3.584,0.495 4.095,2.246" style="fill:#fff;fill-rule:nonzero;"/><path d="M207.311,43.308c-0.51,-1.75 -2.346,-2.757 -4.096,-2.246c-1.75,0.511 -2.756,2.346 -2.246,4.096c0.511,1.75 2.346,2.756 4.097,2.246c1.75,-0.511 2.756,-2.346 2.245,-4.096Z" style="fill:none;stroke:#2f5285;stroke-width:1px;"/><path d="M211.983,65.555c0.511,1.751 -0.495,3.584 -2.246,4.095c-1.751,0.511 -3.585,-0.494 -4.095,-2.245c-0.511,-1.751 0.494,-3.585 2.245,-4.096c1.751,-0.511 3.585,0.495 4.096,2.246" style="fill:#fff;fill-rule:nonzero;"/><path d="M211.983,65.555c-0.511,-1.75 -2.346,-2.756 -4.096,-2.246c-1.75,0.511 -2.757,2.346 -2.246,4.096c0.51,1.75 2.346,2.756 4.096,2.246c1.75,-0.511 2.756,-2.346 2.246,-4.096Z" style="fill:none;stroke:#2f5285;stroke-width:1px;"/><path d="M207.813,92.757c0.511,1.751 -0.495,3.585 -2.246,4.096c-1.751,0.51 -3.585,-0.495 -4.095,-2.246c-0.511,-1.751 0.494,-3.585 2.245,-4.096c1.751,-0.51 3.585,0.495 4.096,2.246" style="fill:#fff;fill-rule:nonzero;"/><path d="M207.813,92.757c-0.511,-1.75 -2.346,-2.756 -4.096,-2.246c-1.75,0.511 -2.757,2.346 -2.246,4.096c0.511,1.75 2.346,2.757 4.096,2.246c1.75,-0.511 2.756,-2.346 2.246,-4.096Z" style="fill:none;stroke:#2f5285;stroke-width:1px;"/><path d="M59.41,158.471c0.511,1.751 -0.495,3.584 -2.246,4.095c-1.751,0.51 -3.585,-0.494 -4.095,-2.245c-0.511,-1.751 0.494,-3.585 2.245,-4.096c1.751,-0.511 3.585,0.494 4.096,2.246" style="fill:#fff;fill-rule:nonzero;"/><path d="M59.41,158.47c-0.511,-1.75 -2.346,-2.756 -4.096,-2.245c-1.75,0.51 -2.757,2.346 -2.246,4.096c0.511,1.749 2.346,2.756 4.096,2.245c1.75,-0.511 2.756,-2.346 2.246,-4.096Z" style="fill:none;stroke:#2f5285;stroke-width:1px;"/><path d="M51.139,156.786c0.317,1.09 -0.309,2.23 -1.398,2.548c-1.09,0.318 -2.23,-0.308 -2.548,-1.398c-0.318,-1.088 0.308,-2.23 1.398,-2.547c1.089,-0.318 2.23,0.307 2.547,1.397" style="fill:#fff;fill-rule:nonzero;"/><path d="M51.139,156.787c-0.317,-1.089 -1.459,-1.716 -2.549,-1.398c-1.089,0.317 -1.716,1.459 -1.398,2.548c0.317,1.089 1.459,1.716 2.548,1.398c1.09,-0.317 1.716,-1.459 1.399,-2.548Z" style="fill:none;stroke:#2f5285;stroke-width:0.5px;"/><path d="M53.598,165.587c0.511,1.751 -0.495,3.584 -2.246,4.096c-1.751,0.51 -3.585,-0.495 -4.095,-2.246c-0.511,-1.751 0.494,-3.585 2.245,-4.096c1.752,-0.511 3.585,0.495 4.096,2.246" style="fill:#fff;fill-rule:nonzero;"/><path d="M53.598,165.587c-0.511,-1.75 -2.346,-2.756 -4.096,-2.246c-1.75,0.511 -2.757,2.346 -2.246,4.096c0.511,1.75 2.346,2.757 4.096,2.246c1.75,-0.51 2.757,-2.346 2.246,-4.096Z" style="fill:none;stroke:#2f5285;stroke-width:1px;"/><path d="M55.391,186.694c0.511,1.751 -0.495,3.585 -2.246,4.096c-1.751,0.51 -3.585,-0.495 -4.095,-2.246c-0.511,-1.751 0.494,-3.585 2.246,-4.096c1.751,-0.511 3.584,0.495 4.095,2.246" style="fill:#fff;fill-rule:nonzero;"/><path d="M55.391,186.694c-0.511,-1.75 -2.346,-2.757 -4.096,-2.246c-1.75,0.51 -2.756,2.346 -2.246,4.096c0.511,1.75 2.346,2.756 4.096,2.246c1.75,-0.511 2.757,-2.346 2.246,-4.096Z" style="fill:none;stroke:#2f5285;stroke-width:1px;"/><path d="M45.164,175.223c0.511,1.751 -0.495,3.585 -2.246,4.096c-1.751,0.51 -3.585,-0.495 -4.095,-2.246c-0.511,-1.751 0.494,-3.584 2.246,-4.095c1.751,-0.511 3.584,0.494 4.095,2.245" style="fill:#fff;fill-rule:nonzero;"/><path d="M45.165,175.223c-0.511,-1.749 -2.346,-2.756 -4.096,-2.245c-1.75,0.511 -2.757,2.346 -2.246,4.096c0.51,1.749 2.346,2.756 4.096,2.245c1.75,-0.511 2.756,-2.346 2.246,-4.096Z" style="fill:none;stroke:#2f5285;stroke-width:1px;"/><path d="M38.875,182.792c0.511,1.751 -0.495,3.585 -2.246,4.096c-1.751,0.51 -3.585,-0.495 -4.095,-2.246c-0.511,-1.751 0.494,-3.585 2.246,-4.096c1.751,-0.511 3.584,0.495 4.095,2.246" style="fill:#fff;fill-rule:nonzero;"/><path d="M38.875,182.792c-0.51,-1.75 -2.346,-2.756 -4.096,-2.246c-1.75,0.511 -2.756,2.346 -2.246,4.096c0.511,1.751 2.346,2.757 4.097,2.246c1.75,-0.51 2.756,-2.346 2.245,-4.096Z" style="fill:none;stroke:#2f5285;stroke-width:1px;"/><path d="M207.715,111.692c0.511,1.751 -0.495,3.584 -2.246,4.095c-1.751,0.511 -3.585,-0.494 -4.095,-2.245c-0.512,-1.751 0.494,-3.585 2.245,-4.096c1.751,-0.511 3.585,0.495 4.096,2.246" style="fill:#fff;fill-rule:nonzero;"/><path d="M207.715,111.691c-0.51,-1.75 -2.346,-2.756 -4.096,-2.245c-1.75,0.51 -2.757,2.345 -2.246,4.095c0.51,1.75 2.346,2.756 4.096,2.246c1.75,-0.511 2.757,-2.346 2.246,-4.096Z" style="fill:none;stroke:#2f5285;stroke-width:1px;"/><path d="M107.816,186.548l-23.112,7.791" style="fill:none;stroke:#2f5285;stroke-width:3px;"/><path d="M115.146,136.161l-7.33,50.387" style="fill:none;stroke:#2f5285;stroke-width:3px;"/><path d="M152.16,88.653l-37.014,47.509" style="fill:none;stroke:#2f5285;stroke-width:3px;"/><path d="M208.709,72.158l-56.549,16.495" style="fill:none;stroke:#2f5285;stroke-width:3px;"/><path d="M155.331,87.728c0.511,1.751 -0.495,3.585 -2.246,4.096c-1.751,0.51 -3.585,-0.495 -4.095,-2.246c-0.511,-1.751 0.494,-3.585 2.245,-4.096c1.751,-0.51 3.585,0.495 4.096,2.246" style="fill:#fff;fill-rule:nonzero;"/><path d="M155.331,87.728c-0.511,-1.75 -2.346,-2.757 -4.096,-2.246c-1.75,0.51 -2.757,2.346 -2.246,4.096c0.511,1.75 2.346,2.756 4.096,2.246c1.75,-0.511 2.757,-2.346 2.246,-4.096Z" style="fill:none;stroke:#2f5285;stroke-width:1px;"/><path d="M146.093,99.584c0.511,1.751 -0.495,3.584 -2.246,4.095c-1.751,0.511 -3.584,-0.494 -4.095,-2.245c-0.511,-1.751 0.495,-3.585 2.246,-4.096c1.751,-0.511 3.584,0.495 4.095,2.246" style="fill:#fff;fill-rule:nonzero;"/><path d="M146.093,99.584c-0.51,-1.75 -2.346,-2.756 -4.096,-2.246c-1.749,0.511 -2.756,2.346 -2.245,4.096c0.51,1.75 2.346,2.756 4.095,2.245c1.75,-0.51 2.757,-2.345 2.246,-4.095Z" style="fill:none;stroke:#2f5285;stroke-width:1px;"/><path d="M118.395,134.961c0.511,1.751 -0.495,3.585 -2.246,4.096c-1.751,0.51 -3.585,-0.495 -4.095,-2.246c-0.511,-1.751 0.495,-3.584 2.246,-4.095c1.751,-0.511 3.584,0.494 4.095,2.245" style="fill:#fff;fill-rule:nonzero;"/><path d="M118.395,134.962c-0.51,-1.75 -2.346,-2.756 -4.096,-2.246c-1.75,0.511 -2.756,2.346 -2.246,4.096c0.511,1.75 2.346,2.756 4.096,2.245c1.75,-0.51 2.757,-2.346 2.246,-4.095Z" style="fill:none;stroke:#2f5285;stroke-width:1px;"/><path d="M114.229,164.16c0.511,1.751 -0.495,3.585 -2.246,4.096c-1.751,0.51 -3.585,-0.495 -4.095,-2.246c-0.511,-1.751 0.495,-3.584 2.246,-4.095c1.751,-0.511 3.584,0.494 4.095,2.245" style="fill:#fff;fill-rule:nonzero;"/><path d="M114.23,164.161c-0.511,-1.75 -2.346,-2.756 -4.096,-2.245c-1.75,0.51 -2.757,2.345 -2.246,4.095c0.51,1.75 2.345,2.756 4.096,2.245c1.75,-0.51 2.756,-2.345 2.246,-4.095Z" style="fill:none;stroke:#2f5285;stroke-width:1px;"/><path d="M110.387,185.295c0.511,1.751 -0.495,3.584 -2.246,4.096c-1.751,0.51 -3.585,-0.495 -4.095,-2.246c-0.511,-1.751 0.494,-3.585 2.246,-4.096c1.751,-0.511 3.584,0.495 4.095,2.246" style="fill:#fff;fill-rule:nonzero;"/><path d="M110.388,185.295c-0.511,-1.75 -2.346,-2.756 -4.096,-2.246c-1.751,0.511 -2.757,2.346 -2.246,4.096c0.51,1.75 2.346,2.757 4.096,2.246c1.75,-0.51 2.756,-2.346 2.246,-4.096Z" style="fill:none;stroke:#2f5285;stroke-width:1px;"/><path d="M171.539,82.881c0.511,1.751 -0.495,3.585 -2.246,4.096c-1.751,0.51 -3.585,-0.495 -4.095,-2.246c-0.511,-1.751 0.494,-3.585 2.246,-4.096c1.751,-0.51 3.584,0.495 4.095,2.246" style="fill:#fff;fill-rule:nonzero;"/><path d="M171.54,82.881c-0.511,-1.75 -2.346,-2.757 -4.097,-2.246c-1.75,0.51 -2.756,2.346 -2.245,4.096c0.51,1.75 2.346,2.756 4.096,2.246c1.75,-0.511 2.756,-2.346 2.246,-4.096Z" style="fill:none;stroke:#2f5285;stroke-width:1px;"/><path d="M173.831,75.913c0.318,1.09 -0.308,2.23 -1.397,2.548c-1.09,0.318 -2.231,-0.307 -2.549,-1.397c-0.318,-1.089 0.308,-2.231 1.398,-2.548c1.089,-0.318 2.23,0.308 2.548,1.397" style="fill:#fff;fill-rule:nonzero;"/><path d="M173.831,75.913c-0.318,-1.089 -1.46,-1.715 -2.549,-1.397c-1.089,0.317 -1.715,1.459 -1.398,2.548c0.318,1.089 1.46,1.715 2.549,1.398c1.089,-0.318 1.716,-1.46 1.398,-2.549Z" style="fill:none;stroke:#2f5285;stroke-width:0.5px;"/><path d="M149.026,82.157c0.318,1.09 -0.308,2.23 -1.397,2.548c-1.09,0.318 -2.231,-0.307 -2.549,-1.397c-0.318,-1.089 0.308,-2.231 1.398,-2.548c1.089,-0.318 2.23,0.308 2.548,1.397" style="fill:#fff;fill-rule:nonzero;"/><path d="M149.026,82.156c-0.318,-1.089 -1.46,-1.715 -2.549,-1.397c-1.089,0.318 -1.715,1.459 -1.398,2.548c0.318,1.089 1.46,1.716 2.549,1.398c1.089,-0.318 1.715,-1.46 1.398,-2.549Z" style="fill:none;stroke:#2f5285;stroke-width:0.5px;"/><path d="M64.734,154.6c0.318,1.09 -0.308,2.23 -1.397,2.549c-1.09,0.317 -2.231,-0.308 -2.549,-1.398c-0.318,-1.089 0.308,-2.23 1.398,-2.548c1.089,-0.318 2.23,0.308 2.548,1.397" style="fill:#fff;fill-rule:nonzero;"/><path d="M64.734,154.6c-0.317,-1.089 -1.459,-1.715 -2.548,-1.397c-1.089,0.317 -1.716,1.459 -1.398,2.548c0.318,1.089 1.46,1.716 2.549,1.398c1.089,-0.318 1.715,-1.46 1.397,-2.549Z" style="fill:none;stroke:#2f5285;stroke-width:0.5px;"/><path d="M97.14,76.214c2.502,8.844 -2.64,18.042 -11.484,20.544c-8.844,2.501 -18.042,-2.64 -20.543,-11.484c-2.502,-8.844 2.639,-18.042 11.484,-20.544c8.843,-2.501 18.041,2.64 20.543,11.484" style="fill:#2f5285;fill-rule:nonzero;"/><path d="M97.14,76.214c-2.5,-8.838 -11.706,-13.984 -20.544,-11.484c-8.838,2.501 -13.984,11.706 -11.484,20.544c2.5,8.839 11.706,13.984 20.544,11.484c8.839,-2.5 13.984,-11.706 11.484,-20.544Z" style="fill:none;stroke:#2f5285;stroke-width:1.5px;"/><path d="M89.005,193.064c0.511,1.751 -0.495,3.585 -2.246,4.096c-1.751,0.51 -3.585,-0.495 -4.095,-2.246c-0.511,-1.751 0.494,-3.585 2.245,-4.096c1.751,-0.511 3.585,0.495 4.096,2.246" style="fill:#fff;fill-rule:nonzero;"/><path d="M89.005,193.064c-0.511,-1.751 -2.346,-2.757 -4.096,-2.246c-1.75,0.51 -2.757,2.346 -2.246,4.096c0.51,1.75 2.346,2.756 4.096,2.246c1.75,-0.511 2.756,-2.346 2.246,-4.096Z" style="fill:none;stroke:#2f5285;stroke-width:1px;"/></g></g></svg>