<?xml version="1.0" encoding="UTF-8" standalone="no"?><!DOCTYPE svg PUBLIC "-//W3C//DTD SVG 1.1//EN" "http://www.w3.org/Graphics/SVG/1.1/DTD/svg11.dtd"><svg width="100%" height="100%" viewBox="0 0 1024 247" version="1.1" xmlns="http://www.w3.org/2000/svg" xmlns:xlink="http://www.w3.org/1999/xlink" xml:space="preserve" xmlns:serif="http://www.serif.com/" style="fill-rule:evenodd;clip-rule:evenodd;stroke-miterlimit:10;"><g id="Layer-1" serif:id="Layer 1"><g><path d="M275.823,102.846c0,4.679 -0.088,11.652 3.443,15.448c3.089,3.355 7.768,4.149 11.917,4.767c8.386,0.441 16.684,0.971 24.982,0.971c7.679,0 15.271,-0.353 22.951,-0.794c3.884,-0.618 7.68,-1.236 10.593,-3.355c1.059,-0.794 1.765,-1.589 2.56,-2.648c1.942,-2.737 3.178,-6.091 3.178,-13.153c0,-9.092 -2.825,-13.153 -6.003,-15.448c-2.207,-1.589 -4.149,-2.295 -9.269,-2.825l-37.428,-1.324c-2.384,-0.177 -4.502,-0.265 -6.179,-2.383c-0.354,-0.353 -1.06,-1.413 -1.06,-2.737c0,-1.324 0.795,-2.472 1.06,-2.825c1.5,-1.942 3.707,-2.03 6.091,-2.118c3.619,-0.089 7.15,-0.265 10.769,-0.265c4.59,0 9.269,0.176 13.859,0.441c5.032,0.53 5.915,1.148 7.062,5.915l18.891,0.088c0.176,-5.473 0.176,-11.034 -4.149,-15.007c-3.354,-3.089 -7.68,-3.884 -9.004,-4.06l-3.443,-0.53c-7.503,-0.353 -15.006,-0.795 -22.51,-0.795c-6.797,0 -13.594,0.265 -20.391,0.53c-5.208,0.618 -9.975,1.236 -13.595,5.12c-1.059,1.148 -1.942,2.472 -2.559,3.972c-1.589,3.973 -1.589,10.77 -1.589,11.211c0,6.356 1.765,10.152 3.707,12.271c3.001,3.266 7.327,3.972 8.563,4.148c0.883,0.177 1.854,0.265 2.736,0.442c2.913,0.176 5.826,0.441 8.739,0.618c9.093,0.529 18.273,0.618 27.454,0.794c4.414,0.618 6.356,0.53 7.856,2.648c0.795,1.148 0.883,2.207 0.883,2.737c0,2.119 -1.677,4.061 -3.619,4.767c-1.942,0.794 -4.679,0.529 -5.297,0.529c-4.325,0.089 -8.562,0.265 -12.799,0.177c-3.973,-0.088 -7.857,-0.265 -11.829,-0.441c-4.061,-0.354 -5.915,-1.148 -6.621,-3.178c-0.441,-1.06 -0.441,-2.207 -0.441,-3.62l-19.509,-0.088Z" style="fill:#2f5285;fill-rule:nonzero;"/><path d="M473.821,83.161c-0.089,-5.738 -0.177,-13.418 -4.855,-17.743c-3.531,-3.266 -7.945,-3.973 -12.359,-4.679c-7.327,-0.265 -14.653,-0.618 -21.98,-0.618c-7.239,0 -14.477,0.442 -21.628,0.971c-2.03,0.353 -9.533,1.236 -14.3,6.886c-2.648,3.354 -3.266,6.355 -3.796,10.504c-0.265,4.591 -0.618,9.093 -0.618,13.683c0,4.414 0.353,8.827 0.706,13.153c0.618,5.12 1.325,9.18 5.297,12.888c3.972,3.708 9.71,4.59 15.448,5.473c7.327,0.265 14.654,0.441 21.98,0.441c6.709,0 13.418,-0.264 20.127,-0.706c4.149,-0.618 8.033,-1.147 11.476,-3.972c4.413,-3.531 4.943,-8.651 5.12,-14.036c0.088,-1.942 0.176,-3.796 0.176,-5.649l-18.979,0c-0.176,2.295 -0.265,4.678 -1.589,6.179c-1.942,2.295 -6.356,2.383 -6.709,2.471l-22.863,0c-0.794,-0.088 -5.385,-0.176 -8.209,-2.736c-2.472,-2.207 -2.56,-5.914 -2.649,-9.357l0,-4.59c0,-4.591 0.177,-8.298 0.707,-10.152c1.412,-4.855 5.826,-5.385 7.415,-5.561c0.971,-0.089 2.03,-0.177 3.001,-0.177c3.972,-0.176 7.768,-0.265 11.652,-0.265c3.708,0 7.415,0.177 11.035,0.353c2.56,0.265 4.943,0.442 6.444,2.296c1.324,1.588 1.324,3.001 1.324,4.855l18.626,0.088Z" style="fill:#2f5285;fill-rule:nonzero;"/><path d="M512.659,96.755c0,7.945 0.177,17.655 7.68,22.863c4.855,3.355 10.24,3.708 15.801,4.061c7.151,0.177 14.212,0.353 21.363,0.353c6.267,0 12.535,-0.176 18.714,-0.265c6.885,-0.529 14.212,-1.324 18.979,-7.15c3.09,-3.796 3.708,-7.415 4.326,-12.005c0.176,-3.002 0.441,-5.915 0.529,-8.828c0.177,-4.502 0,-8.916 -0.176,-13.418c-0.265,-4.502 -0.618,-8.474 -2.825,-12.535c-3.796,-6.708 -10.24,-7.944 -12.8,-8.386c-0.971,-0.176 -1.942,-0.353 -2.913,-0.441c-9.092,-0.441 -18.096,-0.795 -27.1,-0.795c-7.68,0 -15.272,0.354 -22.864,0.795c-3.707,0.53 -6.708,1.059 -9.975,3.001c-4.413,2.56 -6.708,6.709 -7.68,11.564c-0.176,0.971 -0.353,1.942 -0.441,2.913l-0.618,18.273Zm31.426,11.829c-5.296,-0.441 -8.474,-1.148 -10.063,-3.354c-1.413,-2.031 -1.766,-5.827 -1.942,-11.123c0.088,-4.855 0.176,-8.21 0.441,-10.416c0.088,-0.442 0.353,-2.119 1.059,-3.443c0.265,-0.53 0.795,-1.413 2.031,-2.295c1.765,-1.324 3.442,-1.854 7.768,-2.119l26.659,0c4.943,0.353 8.562,0.795 10.063,5.738c0.441,1.324 0.53,2.383 0.618,3.796l0,13.506c-0.353,3.001 -0.706,4.325 -1.501,5.649c-1.942,3.355 -5.649,3.708 -9.71,4.061l-25.423,0Z" style="fill:#2f5285;fill-rule:nonzero;"/><path d="M640.214,61.004l0,62.322l19.508,0l0,-15.89l32.662,0c2.472,0.265 4.767,0.53 6.179,2.56c0.971,1.589 1.06,3.267 1.06,4.944l0,8.386l19.332,0l0,-10.858c0,-3.266 0,-6.091 -2.207,-8.827c-3.001,-3.884 -8.033,-3.973 -13.153,-3.973c4.59,-0.794 10.593,-1.853 13.594,-6.179c0.795,-1.059 1.324,-2.383 1.501,-2.825c1.236,-3.884 1.236,-9.71 1.236,-10.328c0,-0.883 0.088,-7.856 -2.56,-12.447c-0.353,-0.618 -1.413,-2.206 -3.09,-3.531c-4.943,-3.972 -11.122,-3.707 -17.478,-3.354l-56.584,0Zm19.597,14.918l32.22,0c2.825,0.177 5.561,0.353 7.062,2.119c1.677,2.03 1.677,6.003 1.677,6.444c0,0.441 -0.088,4.943 -2.913,6.532c-1.501,0.795 -3.884,0.971 -7.503,0.971l-30.543,0l0,-16.066Z" style="fill:#2f5285;fill-rule:nonzero;"/><path d="M760.177,61.004l0,62.322l19.685,0l0,-15.625l32.308,0c5.297,0 12.8,-0.088 17.479,-3.619c6.885,-5.296 6.356,-18.449 6.356,-19.067c0,-1.589 -0.089,-3.09 -0.177,-4.679c-0.177,-5.296 -0.441,-9.622 -4.149,-13.859c-2.56,-3.001 -5.826,-5.208 -14.036,-5.473c-1.677,-0.088 -3.442,-0.088 -5.208,0l-52.258,0Zm48.462,14.83c2.384,0.265 4.767,0.53 6.18,2.03c1.942,1.942 2.03,6.268 2.03,6.533c0,2.207 -0.618,3.619 -1.059,4.59c-1.678,3.354 -4.326,3.531 -8.122,3.443l-27.894,0l0,-16.596l28.865,0Z" style="fill:#2f5285;fill-rule:nonzero;"/><rect x="873.519" y="61.004" width="19.774" height="62.322" style="fill:#2f5285;fill-rule:nonzero;"/><path d="M933.014,96.755c0,7.945 0.176,17.655 7.68,22.863c4.855,3.355 10.239,3.708 15.801,4.061c7.15,0.177 14.212,0.353 21.362,0.353c6.268,0 12.535,-0.176 18.714,-0.265c6.886,-0.529 14.213,-1.324 18.979,-7.15c3.09,-3.796 3.708,-7.415 4.326,-12.005c0.176,-3.002 0.441,-5.915 0.53,-8.828c0.176,-4.502 0,-8.916 -0.177,-13.418c-0.265,-4.502 -0.618,-8.474 -2.825,-12.535c-3.796,-6.708 -10.24,-7.944 -12.8,-8.386c-0.971,-0.176 -1.942,-0.353 -2.913,-0.441c-9.092,-0.441 -18.096,-0.795 -27.1,-0.795c-7.68,0 -15.272,0.354 -22.863,0.795c-3.708,0.53 -6.709,1.059 -9.975,3.001c-4.414,2.56 -6.709,6.709 -7.68,11.564c-0.177,0.971 -0.353,1.942 -0.441,2.913l-0.618,18.273Zm31.425,11.829c-5.296,-0.441 -8.474,-1.148 -10.063,-3.354c-1.412,-2.031 -1.765,-5.827 -1.942,-11.123c0.088,-4.855 0.177,-8.21 0.441,-10.416c0.089,-0.442 0.354,-2.119 1.06,-3.443c0.265,-0.53 0.794,-1.413 2.03,-2.295c1.766,-1.324 3.443,-1.854 7.768,-2.119l26.659,0c4.944,0.353 8.563,0.795 10.063,5.738c0.442,1.324 0.53,2.383 0.618,3.796l0,13.506c-0.353,3.001 -0.706,4.325 -1.5,5.649c-1.942,3.355 -5.65,3.708 -9.71,4.061l-25.424,0Z" style="fill:#2f5285;fill-rule:nonzero;"/><rect x="278.015" y="147.989" width="11.996" height="37.809" style="fill:#2f5285;fill-rule:nonzero;"/><path d="M315.231,147.989l0,37.809l11.032,0l0,-28.919c3.106,4.177 6.266,8.408 9.479,12.531c4.338,5.57 8.783,10.979 13.227,16.388l18.583,0l0,-37.809l-10.924,0l0,11.782l0.214,17.351c-3.588,-4.713 -7.176,-9.425 -10.818,-14.031c-4.016,-5.088 -8.14,-10.068 -12.264,-15.102l-18.529,0Z" style="fill:#2f5285;fill-rule:nonzero;"/><path d="M389.988,147.989l0,8.783l16.708,0l0,29.026l11.889,0l0,-29.08l17.03,0l0,-8.729l-45.627,0Z" style="fill:#2f5285;fill-rule:nonzero;"/><path d="M457.782,147.989l0,37.809l42.254,0l0,-8.569l-30.74,0l0,-6.641l29.08,0l0,-7.925l-29.08,0l0,-6.32l30.74,0l0,-8.354l-42.254,0Z" style="fill:#2f5285;fill-rule:nonzero;"/><path d="M525.095,147.989l0,37.809l37.97,0l0,-9.372l-26.135,0l0,-28.437l-11.835,0Z" style="fill:#2f5285;fill-rule:nonzero;"/><path d="M585.767,147.989l0,37.809l37.97,0l0,-9.372l-26.134,0l0,-28.437l-11.836,0Z" style="fill:#2f5285;fill-rule:nonzero;"/><rect x="646.6" y="147.989" width="11.996" height="37.809" style="fill:#2f5285;fill-rule:nonzero;"/><path d="M734.635,161.056c0.107,-3.535 0.107,-6.641 -2.303,-9.586c-1.5,-1.821 -3.535,-3.16 -8.462,-3.642c-3.052,-0.321 -5.998,-0.321 -8.997,-0.268l-9.264,0c-1.5,0 -2.999,0.054 -4.499,0.054c-5.784,0.107 -8.515,0.214 -11.192,1.339c-4.606,1.928 -6.266,5.623 -6.855,10.282c-0.214,1.607 -0.268,3.213 -0.268,4.82c0,1.178 0,2.303 0.054,3.427c0.053,4.231 -0.375,9.961 2.249,13.817c0.321,0.375 1.017,1.285 2.142,2.142c3.695,2.731 7.926,2.785 12.157,2.785l19.225,0c3.374,0 7.283,0 10.443,-1.339c3.802,-1.606 5.088,-4.873 5.463,-8.729c0.16,-1.392 0.214,-2.785 0.214,-4.177c0.107,-2.571 0.053,-5.088 0.053,-7.605l-27.687,-0.053l0,7.39l15.906,0c0,1.232 -0.054,2.41 -0.75,3.535c-1.232,1.767 -3.267,1.82 -5.57,1.874l-14.298,0c-2.196,-0.161 -4.285,-0.268 -5.677,-1.553c-1.714,-1.66 -1.714,-4.552 -1.714,-5.088c0,-0.267 0,-0.482 -0.053,-0.749l0,-4.981c0.16,-3.588 0.267,-5.569 1.767,-6.748c1.232,-1.017 2.838,-1.124 4.338,-1.178l16.226,0c4.874,0.214 5.195,1.125 5.516,4.231l11.836,0Z" style="fill:#2f5285;fill-rule:nonzero;"/><path d="M758.998,147.989l0,37.809l42.253,0l0,-8.569l-30.739,0l0,-6.641l29.079,0l0,-7.925l-29.079,0l0,-6.32l30.739,0l0,-8.354l-42.253,0Z" style="fill:#2f5285;fill-rule:nonzero;"/><path d="M826.418,147.989l0,37.809l11.032,0l0,-28.919c3.106,4.177 6.265,8.408 9.479,12.531c4.337,5.57 8.782,10.979 13.227,16.388l18.583,0l0,-37.809l-10.925,0l0,11.782l0.215,17.351c-3.589,-4.713 -7.177,-9.425 -10.818,-14.031c-4.017,-5.088 -8.14,-10.068 -12.264,-15.102l-18.529,0Z" style="fill:#2f5285;fill-rule:nonzero;"/><path d="M951.033,161.431c-0.054,-3.481 -0.108,-8.14 -2.946,-10.764c-2.142,-1.982 -4.82,-2.41 -7.497,-2.839c-4.445,-0.16 -8.89,-0.375 -13.335,-0.375c-4.392,0 -8.783,0.268 -13.121,0.589c-1.231,0.215 -5.784,0.75 -8.675,4.178c-1.607,2.035 -1.982,3.855 -2.303,6.372c-0.161,2.785 -0.375,5.516 -0.375,8.301c0,2.678 0.214,5.356 0.428,7.98c0.375,3.106 0.804,5.569 3.214,7.819c2.409,2.249 5.89,2.784 9.371,3.32c4.445,0.16 8.89,0.268 13.335,0.268c4.07,0 8.14,-0.161 12.21,-0.429c2.517,-0.375 4.874,-0.696 6.962,-2.41c2.678,-2.142 2.999,-5.248 3.106,-8.515c0.054,-1.178 0.108,-2.303 0.108,-3.427l-11.514,0c-0.108,1.392 -0.161,2.838 -0.964,3.749c-1.179,1.392 -3.856,1.446 -4.07,1.499l-13.871,0c-0.482,-0.053 -3.267,-0.107 -4.98,-1.66c-1.5,-1.339 -1.553,-3.588 -1.607,-5.677l0,-2.785c0,-2.784 0.107,-5.034 0.429,-6.158c0.856,-2.946 3.534,-3.267 4.498,-3.374c0.589,-0.054 1.232,-0.107 1.821,-0.107c2.41,-0.107 4.713,-0.161 7.069,-0.161c2.249,0 4.498,0.107 6.694,0.214c1.553,0.161 2.999,0.268 3.909,1.393c0.804,0.964 0.804,1.821 0.804,2.945l11.3,0.054Z" style="fill:#2f5285;fill-rule:nonzero;"/><path d="M975.663,147.989l0,37.809l42.254,0l0,-8.569l-30.74,0l0,-6.641l29.08,0l0,-7.925l-29.08,0l0,-6.32l30.74,0l0,-8.354l-42.254,0Z" style="fill:#2f5285;fill-rule:nonzero;"/></g><g><g><clipPath id="_clip1"><path d="M18.51,63.827c-32.833,58.736 -11.835,132.965 46.9,165.798c58.735,32.834 132.966,11.835 165.799,-46.899c32.833,-58.736 11.835,-132.966 -46.9,-165.799c-18.814,-10.517 -39.215,-15.511 -59.338,-15.51c-42.702,0.001 -84.145,22.489 -106.461,62.41Z" clip-rule="nonzero"/></clipPath><g clip-path="url(#_clip1)"><path d="M-48.04,122.725l172.349,-172.348l17.235,17.235l-172.349,172.348l-17.235,-17.235Z" style="fill:#2f5286;"/><g><g opacity="0.899994"><path d="M-31.003,139.762l172.348,-172.349l17.235,17.235l-172.348,172.349l-17.235,-17.235Z" style="fill:#2f5286;"/></g></g><g><g opacity="0.800003"><path d="M-13.748,157.017l172.349,-172.348l17.235,17.235l-172.349,172.348l-17.235,-17.235Z" style="fill:#2f5286;"/></g></g><g><g opacity="0.699997"><path d="M3.555,174.32l172.349,-172.348l17.234,17.235l-172.349,172.348l-17.234,-17.235Z" style="fill:#2f5286;"/></g></g><g><g opacity="0.600006"><path d="M20.805,191.571l172.349,-172.349l17.235,17.235l-172.349,172.349l-17.235,-17.235Z" style="fill:#2f5286;"/></g></g><g><g opacity="0.5"><path d="M38.056,208.821l172.349,-172.348l17.235,17.235l-172.349,172.348l-17.235,-17.235Z" style="fill:#2f5286;"/></g></g><g><g opacity="0.399994"><path d="M55.291,226.056l172.348,-172.349l17.235,17.236l-172.348,172.349l-17.235,-17.236Z" style="fill:#2f5286;"/></g></g><g><g opacity="0.300003"><path d="M72.526,243.291l172.348,-172.348l17.235,17.235l-172.348,172.348l-17.235,-17.235Z" style="fill:#2f5286;"/></g></g><g><g opacity="0.199997"><path d="M89.76,260.526l172.349,-172.349l17.235,17.235l-172.348,172.349l-17.236,-17.235Z" style="fill:#2f5286;"/></g></g><g><g opacity="0.100006"><path d="M106.995,277.76l172.349,-172.348l17.235,17.235l-172.349,172.348l-17.235,-17.235Z" style="fill:#2f5286;"/></g></g></g></g><path d="M35.598,183.489l20.823,-23.905" style="fill:none;stroke:#2f5285;stroke-width:3px;"/><path d="M84.704,194.339l-49.105,-10.851" style="fill:none;stroke:#2f5285;stroke-width:3px;"/><path d="M204.542,113.116l0.1,-19.434" style="fill:none;stroke:#2f5285;stroke-width:3px;"/><path d="M208.709,66.273l-4.067,27.409" style="fill:none;stroke:#2f5285;stroke-width:3px;"/><path d="M190.745,44.241l13.553,-0.282" style="fill:none;stroke:#2f5285;stroke-width:3px;"/><path d="M208.709,66.273l-4.411,-22.313" style="fill:none;stroke:#2f5285;stroke-width:3px;"/><path d="M193.92,43.221c0.511,1.751 -0.495,3.585 -2.246,4.096c-1.751,0.51 -3.585,-0.495 -4.095,-2.246c-0.511,-1.751 0.494,-3.585 2.245,-4.096c1.751,-0.51 3.585,0.495 4.096,2.246" style="fill:#fff;fill-rule:nonzero;"/><path d="M193.92,43.221c-0.511,-1.75 -2.346,-2.757 -4.096,-2.246c-1.75,0.511 -2.757,2.346 -2.246,4.096c0.51,1.75 2.346,2.757 4.096,2.246c1.75,-0.511 2.756,-2.346 2.246,-4.096Z" style="fill:none;stroke:#2f5285;stroke-width:1px;"/><path d="M207.311,43.308c0.511,1.751 -0.495,3.585 -2.246,4.096c-1.751,0.51 -3.585,-0.495 -4.095,-2.246c-0.511,-1.751 0.494,-3.585 2.246,-4.096c1.751,-0.51 3.584,0.495 4.095,2.246" style="fill:#fff;fill-rule:nonzero;"/><path d="M207.311,43.308c-0.51,-1.75 -2.346,-2.757 -4.096,-2.246c-1.75,0.511 -2.756,2.346 -2.246,4.096c0.511,1.75 2.346,2.756 4.097,2.246c1.75,-0.511 2.756,-2.346 2.245,-4.096Z" style="fill:none;stroke:#2f5285;stroke-width:1px;"/><path d="M211.983,65.555c0.511,1.751 -0.495,3.584 -2.246,4.095c-1.751,0.511 -3.585,-0.494 -4.095,-2.245c-0.511,-1.751 0.494,-3.585 2.245,-4.096c1.751,-0.511 3.585,0.495 4.096,2.246" style="fill:#fff;fill-rule:nonzero;"/><path d="M211.983,65.555c-0.511,-1.75 -2.346,-2.756 -4.096,-2.246c-1.75,0.511 -2.757,2.346 -2.246,4.096c0.51,1.75 2.346,2.756 4.096,2.246c1.75,-0.511 2.756,-2.346 2.246,-4.096Z" style="fill:none;stroke:#2f5285;stroke-width:1px;"/><path d="M207.813,92.757c0.511,1.751 -0.495,3.585 -2.246,4.096c-1.751,0.51 -3.585,-0.495 -4.095,-2.246c-0.511,-1.751 0.494,-3.585 2.245,-4.096c1.751,-0.51 3.585,0.495 4.096,2.246" style="fill:#fff;fill-rule:nonzero;"/><path d="M207.813,92.757c-0.511,-1.75 -2.346,-2.756 -4.096,-2.246c-1.75,0.511 -2.757,2.346 -2.246,4.096c0.511,1.75 2.346,2.757 4.096,2.246c1.75,-0.511 2.756,-2.346 2.246,-4.096Z" style="fill:none;stroke:#2f5285;stroke-width:1px;"/><path d="M59.41,158.471c0.511,1.751 -0.495,3.584 -2.246,4.095c-1.751,0.51 -3.585,-0.494 -4.095,-2.245c-0.511,-1.751 0.494,-3.585 2.245,-4.096c1.751,-0.511 3.585,0.494 4.096,2.246" style="fill:#fff;fill-rule:nonzero;"/><path d="M59.41,158.47c-0.511,-1.75 -2.346,-2.756 -4.096,-2.245c-1.75,0.51 -2.757,2.346 -2.246,4.096c0.511,1.749 2.346,2.756 4.096,2.245c1.75,-0.511 2.756,-2.346 2.246,-4.096Z" style="fill:none;stroke:#2f5285;stroke-width:1px;"/><path d="M51.139,156.786c0.317,1.09 -0.309,2.23 -1.398,2.548c-1.09,0.318 -2.23,-0.308 -2.548,-1.398c-0.318,-1.088 0.308,-2.23 1.398,-2.547c1.089,-0.318 2.23,0.307 2.547,1.397" style="fill:#fff;fill-rule:nonzero;"/><path d="M51.139,156.787c-0.317,-1.089 -1.459,-1.716 -2.549,-1.398c-1.089,0.317 -1.716,1.459 -1.398,2.548c0.317,1.089 1.459,1.716 2.548,1.398c1.09,-0.317 1.716,-1.459 1.399,-2.548Z" style="fill:none;stroke:#2f5285;stroke-width:0.5px;"/><path d="M53.598,165.587c0.511,1.751 -0.495,3.584 -2.246,4.096c-1.751,0.51 -3.585,-0.495 -4.095,-2.246c-0.511,-1.751 0.494,-3.585 2.245,-4.096c1.752,-0.511 3.585,0.495 4.096,2.246" style="fill:#fff;fill-rule:nonzero;"/><path d="M53.598,165.587c-0.511,-1.75 -2.346,-2.756 -4.096,-2.246c-1.75,0.511 -2.757,2.346 -2.246,4.096c0.511,1.75 2.346,2.757 4.096,2.246c1.75,-0.51 2.757,-2.346 2.246,-4.096Z" style="fill:none;stroke:#2f5285;stroke-width:1px;"/><path d="M55.391,186.694c0.511,1.751 -0.495,3.585 -2.246,4.096c-1.751,0.51 -3.585,-0.495 -4.095,-2.246c-0.511,-1.751 0.494,-3.585 2.246,-4.096c1.751,-0.511 3.584,0.495 4.095,2.246" style="fill:#fff;fill-rule:nonzero;"/><path d="M55.391,186.694c-0.511,-1.75 -2.346,-2.757 -4.096,-2.246c-1.75,0.51 -2.756,2.346 -2.246,4.096c0.511,1.75 2.346,2.756 4.096,2.246c1.75,-0.511 2.757,-2.346 2.246,-4.096Z" style="fill:none;stroke:#2f5285;stroke-width:1px;"/><path d="M45.164,175.223c0.511,1.751 -0.495,3.585 -2.246,4.096c-1.751,0.51 -3.585,-0.495 -4.095,-2.246c-0.511,-1.751 0.494,-3.584 2.246,-4.095c1.751,-0.511 3.584,0.494 4.095,2.245" style="fill:#fff;fill-rule:nonzero;"/><path d="M45.165,175.223c-0.511,-1.749 -2.346,-2.756 -4.096,-2.245c-1.75,0.511 -2.757,2.346 -2.246,4.096c0.51,1.749 2.346,2.756 4.096,2.245c1.75,-0.511 2.756,-2.346 2.246,-4.096Z" style="fill:none;stroke:#2f5285;stroke-width:1px;"/><path d="M38.875,182.792c0.511,1.751 -0.495,3.585 -2.246,4.096c-1.751,0.51 -3.585,-0.495 -4.095,-2.246c-0.511,-1.751 0.494,-3.585 2.246,-4.096c1.751,-0.511 3.584,0.495 4.095,2.246" style="fill:#fff;fill-rule:nonzero;"/><path d="M38.875,182.792c-0.51,-1.75 -2.346,-2.756 -4.096,-2.246c-1.75,0.511 -2.756,2.346 -2.246,4.096c0.511,1.751 2.346,2.757 4.097,2.246c1.75,-0.51 2.756,-2.346 2.245,-4.096Z" style="fill:none;stroke:#2f5285;stroke-width:1px;"/><path d="M207.715,111.692c0.511,1.751 -0.495,3.584 -2.246,4.095c-1.751,0.511 -3.585,-0.494 -4.095,-2.245c-0.512,-1.751 0.494,-3.585 2.245,-4.096c1.751,-0.511 3.585,0.495 4.096,2.246" style="fill:#fff;fill-rule:nonzero;"/><path d="M207.715,111.691c-0.51,-1.75 -2.346,-2.756 -4.096,-2.245c-1.75,0.51 -2.757,2.345 -2.246,4.095c0.51,1.75 2.346,2.756 4.096,2.246c1.75,-0.511 2.757,-2.346 2.246,-4.096Z" style="fill:none;stroke:#2f5285;stroke-width:1px;"/><path d="M107.816,186.548l-23.112,7.791" style="fill:none;stroke:#2f5285;stroke-width:3px;"/><path d="M115.146,136.161l-7.33,50.387" style="fill:none;stroke:#2f5285;stroke-width:3px;"/><path d="M152.16,88.653l-37.014,47.509" style="fill:none;stroke:#2f5285;stroke-width:3px;"/><path d="M208.709,72.158l-56.549,16.495" style="fill:none;stroke:#2f5285;stroke-width:3px;"/><path d="M155.331,87.728c0.511,1.751 -0.495,3.585 -2.246,4.096c-1.751,0.51 -3.585,-0.495 -4.095,-2.246c-0.511,-1.751 0.494,-3.585 2.245,-4.096c1.751,-0.51 3.585,0.495 4.096,2.246" style="fill:#fff;fill-rule:nonzero;"/><path d="M155.331,87.728c-0.511,-1.75 -2.346,-2.757 -4.096,-2.246c-1.75,0.51 -2.757,2.346 -2.246,4.096c0.511,1.75 2.346,2.756 4.096,2.246c1.75,-0.511 2.757,-2.346 2.246,-4.096Z" style="fill:none;stroke:#2f5285;stroke-width:1px;"/><path d="M146.093,99.584c0.511,1.751 -0.495,3.584 -2.246,4.095c-1.751,0.511 -3.584,-0.494 -4.095,-2.245c-0.511,-1.751 0.495,-3.585 2.246,-4.096c1.751,-0.511 3.584,0.495 4.095,2.246" style="fill:#fff;fill-rule:nonzero;"/><path d="M146.093,99.584c-0.51,-1.75 -2.346,-2.756 -4.096,-2.246c-1.749,0.511 -2.756,2.346 -2.245,4.096c0.51,1.75 2.346,2.756 4.095,2.245c1.75,-0.51 2.757,-2.345 2.246,-4.095Z" style="fill:none;stroke:#2f5285;stroke-width:1px;"/><path d="M118.395,134.961c0.511,1.751 -0.495,3.585 -2.246,4.096c-1.751,0.51 -3.585,-0.495 -4.095,-2.246c-0.511,-1.751 0.495,-3.584 2.246,-4.095c1.751,-0.511 3.584,0.494 4.095,2.245" style="fill:#fff;fill-rule:nonzero;"/><path d="M118.395,134.962c-0.51,-1.75 -2.346,-2.756 -4.096,-2.246c-1.75,0.511 -2.756,2.346 -2.246,4.096c0.511,1.75 2.346,2.756 4.096,2.245c1.75,-0.51 2.757,-2.346 2.246,-4.095Z" style="fill:none;stroke:#2f5285;stroke-width:1px;"/><path d="M114.229,164.16c0.511,1.751 -0.495,3.585 -2.246,4.096c-1.751,0.51 -3.585,-0.495 -4.095,-2.246c-0.511,-1.751 0.495,-3.584 2.246,-4.095c1.751,-0.511 3.584,0.494 4.095,2.245" style="fill:#fff;fill-rule:nonzero;"/><path d="M114.23,164.161c-0.511,-1.75 -2.346,-2.756 -4.096,-2.245c-1.75,0.51 -2.757,2.345 -2.246,4.095c0.51,1.75 2.345,2.756 4.096,2.245c1.75,-0.51 2.756,-2.345 2.246,-4.095Z" style="fill:none;stroke:#2f5285;stroke-width:1px;"/><path d="M110.387,185.295c0.511,1.751 -0.495,3.584 -2.246,4.096c-1.751,0.51 -3.585,-0.495 -4.095,-2.246c-0.511,-1.751 0.494,-3.585 2.246,-4.096c1.751,-0.511 3.584,0.495 4.095,2.246" style="fill:#fff;fill-rule:nonzero;"/><path d="M110.388,185.295c-0.511,-1.75 -2.346,-2.756 -4.096,-2.246c-1.751,0.511 -2.757,2.346 -2.246,4.096c0.51,1.75 2.346,2.757 4.096,2.246c1.75,-0.51 2.756,-2.346 2.246,-4.096Z" style="fill:none;stroke:#2f5285;stroke-width:1px;"/><path d="M171.539,82.881c0.511,1.751 -0.495,3.585 -2.246,4.096c-1.751,0.51 -3.585,-0.495 -4.095,-2.246c-0.511,-1.751 0.494,-3.585 2.246,-4.096c1.751,-0.51 3.584,0.495 4.095,2.246" style="fill:#fff;fill-rule:nonzero;"/><path d="M171.54,82.881c-0.511,-1.75 -2.346,-2.757 -4.097,-2.246c-1.75,0.51 -2.756,2.346 -2.245,4.096c0.51,1.75 2.346,2.756 4.096,2.246c1.75,-0.511 2.756,-2.346 2.246,-4.096Z" style="fill:none;stroke:#2f5285;stroke-width:1px;"/><path d="M173.831,75.913c0.318,1.09 -0.308,2.23 -1.397,2.548c-1.09,0.318 -2.231,-0.307 -2.549,-1.397c-0.318,-1.089 0.308,-2.231 1.398,-2.548c1.089,-0.318 2.23,0.308 2.548,1.397" style="fill:#fff;fill-rule:nonzero;"/><path d="M173.831,75.913c-0.318,-1.089 -1.46,-1.715 -2.549,-1.397c-1.089,0.317 -1.715,1.459 -1.398,2.548c0.318,1.089 1.46,1.715 2.549,1.398c1.089,-0.318 1.716,-1.46 1.398,-2.549Z" style="fill:none;stroke:#2f5285;stroke-width:0.5px;"/><path d="M149.026,82.157c0.318,1.09 -0.308,2.23 -1.397,2.548c-1.09,0.318 -2.231,-0.307 -2.549,-1.397c-0.318,-1.089 0.308,-2.231 1.398,-2.548c1.089,-0.318 2.23,0.308 2.548,1.397" style="fill:#fff;fill-rule:nonzero;"/><path d="M149.026,82.156c-0.318,-1.089 -1.46,-1.715 -2.549,-1.397c-1.089,0.318 -1.715,1.459 -1.398,2.548c0.318,1.089 1.46,1.716 2.549,1.398c1.089,-0.318 1.715,-1.46 1.398,-2.549Z" style="fill:none;stroke:#2f5285;stroke-width:0.5px;"/><path d="M64.734,154.6c0.318,1.09 -0.308,2.23 -1.397,2.549c-1.09,0.317 -2.231,-0.308 -2.549,-1.398c-0.318,-1.089 0.308,-2.23 1.398,-2.548c1.089,-0.318 2.23,0.308 2.548,1.397" style="fill:#fff;fill-rule:nonzero;"/><path d="M64.734,154.6c-0.317,-1.089 -1.459,-1.715 -2.548,-1.397c-1.089,0.317 -1.716,1.459 -1.398,2.548c0.318,1.089 1.46,1.716 2.549,1.398c1.089,-0.318 1.715,-1.46 1.397,-2.549Z" style="fill:none;stroke:#2f5285;stroke-width:0.5px;"/><path d="M97.14,76.214c2.502,8.844 -2.64,18.042 -11.484,20.544c-8.844,2.501 -18.042,-2.64 -20.543,-11.484c-2.502,-8.844 2.639,-18.042 11.484,-20.544c8.843,-2.501 18.041,2.64 20.543,11.484" style="fill:#2f5285;fill-rule:nonzero;"/><path d="M97.14,76.214c-2.5,-8.838 -11.706,-13.984 -20.544,-11.484c-8.838,2.501 -13.984,11.706 -11.484,20.544c2.5,8.839 11.706,13.984 20.544,11.484c8.839,-2.5 13.984,-11.706 11.484,-20.544Z" style="fill:none;stroke:#2f5285;stroke-width:1.5px;"/><path d="M89.005,193.064c0.511,1.751 -0.495,3.585 -2.246,4.096c-1.751,0.51 -3.585,-0.495 -4.095,-2.246c-0.511,-1.751 0.494,-3.585 2.245,-4.096c1.751,-0.511 3.585,0.495 4.096,2.246" style="fill:#fff;fill-rule:nonzero;"/><path d="M89.005,193.064c-0.511,-1.751 -2.346,-2.757 -4.096,-2.246c-1.75,0.51 -2.757,2.346 -2.246,4.096c0.51,1.75 2.346,2.756 4.096,2.246c1.75,-0.511 2.756,-2.346 2.246,-4.096Z" style="fill:none;stroke:#2f5285;stroke-width:1px;"/></g></g></svg>